# xmcd
#
# Track frame offsets: 
#        150
#        42975
#        60720
#
# Disc length: 1449 seconds
#
# Revision: 0
# Processed by: cddbd v1.5.2PL0 Copyright (c) Steve Scherf et al.
# Submitted via: ExactAudioCopy v0.95b4
#
DISCID=2205a703
DTITLE=Isis and Aereogramme - In the Fishtank 14 (split Isis and Aereogram
DTITLE=me)
DYEAR=2006
DGENRE=Sludge
TTITLE0=Low Tide
TTITLE1=Delial
TTITLE2=Stolen
EXTD=
EXTT0=
EXTT1=
EXTT2=
PLAYORDER=
